HIERARCHY
ROOT Hips
{
	OFFSET 0.00000 0.00000 0.00000
	CHANNELS 6 Xposition Yposition Zposition Yrotation Zrotation Xrotation 
	JOINT Lumbar
	{
		OFFSET 0 0 0
		CHANNELS 3 Zrotation Xrotation Yrotation
		JOINT Neck
		{
			OFFSET 0.00 0.2701 0.00
			CHANNELS 3 Zrotation Xrotation Yrotation
			End Site
			{
				OFFSET 0.00 0.1379 0.00
			}
		}
		JOINT RightShoulder
		{
			OFFSET 0.0119 0.2289 0.1181
			CHANNELS 3 Zrotation Xrotation Yrotation
			JOINT RightElbow
			{
				OFFSET 0.00 -0.1475 0.00
				CHANNELS 2 Zrotation Yrotation
				JOINT RightWrist
				{
					OFFSET 0.00 -0.1605 0.00
					CHANNELS 2 Zrotation Xrotation
					End Site
					{
						OFFSET 0.0040 -0.1068 0.0006
					}
				}
			}
		}
		JOINT LeftShoulder
		{
			OFFSET 0.0119 0.2289 -0.1181
			CHANNELS 3 Zrotation Xrotation Yrotation
			JOINT LeftElbow
			{
				OFFSET 0.00 -0.1475 0.00
				CHANNELS 2 Zrotation Yrotation
				JOINT LeftWrist
				{
					OFFSET 0.00 -0.1605 0.00
					CHANNELS 2 Zrotation Xrotation
					End Site
					{
						OFFSET 0.0040 -0.1068 -0.0006
					}
				}
			}
		}
	}
	JOINT RightHip
	{
		OFFSET 0.0316 -0.0424 0.0458
		CHANNELS 3 Zrotation Xrotation Yrotation
		JOINT RightKnee
		{
			OFFSET 0.00 -0.2438 0.00
			CHANNELS 1 Zrotation
			JOINT RightAnkle
			{
				OFFSET 0.00 -0.2449 0.00
				CHANNELS 3 Zrotation Xrotation Yrotation
				End Site
				{
					OFFSET 0.1237 -0.0542 0.0051
				}
			}
		}
	}
	JOINT LeftHip
	{
		OFFSET 0.0316 -0.0424 -0.0458
		CHANNELS 3 Zrotation Xrotation Yrotation
		JOINT LeftKnee
		{
			OFFSET 0.00 -0.2438 0.00
			CHANNELS 1 Zrotation
			JOINT LeftAnkle
			{
				OFFSET 0.00 -0.2449 0.00
				CHANNELS 3 Zrotation Xrotation Yrotation
				End Site
				{
					OFFSET 0.1237 -0.0542 -0.0051
				}
			}
		}
	}
}
MOTION
Frames: 26
Frame Time: 0.02
0 0.57926 -0 178.14931 0 3.70253 4.31134 -1.32682 -1.81023 -28.50562 2.83329 2.23941 21.33951 -13.60154 3.54898 10.85059 87.45856 0.15899 1.19984 22.95703 6.09769 -19.64138 7.89325 -75.53038 -6.86348 -0.12012 4.16034 2.36657 15.85152 -22.33969 13.94119 -11.90323 -13.14108 2.43358 -4.73899 -8.23735 -15.38005 8.56185 6.92849 11.22404
-0.00054 0.57902 0.00018 178.10795 0 3.72754 4.62262 -1.32036 -1.55392 -28.71964 2.60281 2.12087 21.50278 -13.3264 3.46178 10.73155 87.07844 0.13268 1.16203 23.13027 6.27789 -18.75199 7.88569 -75.56258 -6.85168 -0.08477 4.16201 2.3309 15.74553 -22.32923 13.49266 -11.41249 -13.12778 2.36082 -4.78013 -7.9305 -15.27884 8.37801 6.84517 11.1984
-0.00108 0.57877 0.00035 178.067 0 3.7521 4.93293 -1.31367 -1.2993 -28.93301 2.37389 2.00339 21.66588 -13.0533 3.37648 10.61317 86.70014 0.10646 1.12473 23.30308 6.45604 -17.86655 7.87798 -75.59432 -6.83998 -0.05016 4.16275 2.29554 15.63995 -22.31753 13.04708 -10.92494 -13.11452 2.28836 -4.82079 -7.62625 -15.17862 8.19572 6.76249 11.17306
-0.00163 0.57853 0.00052 178.0274 0 3.77498 5.24239 -1.30581 -1.04838 -29.14683 2.14917 1.88877 21.83031 -12.78547 3.29614 10.49581 86.32643 0.08067 1.08996 23.4768 6.62698 -16.98592 7.86944 -75.62505 -6.82843 -0.01894 4.15925 2.26105 15.53549 -22.29967 12.60876 -10.44485 -13.10177 2.2162 -4.85977 -7.32967 -15.0809 8.01763 6.68128 11.14847
-0.00215 0.57826 0.0007 177.9808 0 3.8066 5.55637 -1.30389 -0.77716 -29.35944 1.90245 1.75872 21.98819 -12.48949 3.18738 10.37251 85.92959 0.05306 1.04281 23.64682 6.83521 -16.07704 7.86511 -75.66173 -6.81595 0.02928 4.17758 2.22193 15.42569 -22.31311 12.13173 -9.92461 -13.08691 2.1422 -4.90745 -6.99277 -14.96936 7.81704 6.59197 11.11967
-0.00272 0.57807 0.00087 177.94897 0 3.81983 5.86045 -1.28956 -0.54962 -29.57361 1.70234 1.66161 22.15944 -12.25348 3.14029 10.26227 85.58128 0.02901 1.02121 23.82371 6.96501 -15.23071 7.85203 -75.68536 -6.80556 0.04216 4.15017 2.19263 15.32688 -22.26126 11.73724 -9.49026 -13.0761 2.07234 -4.93682 -6.74126 -14.88755 7.6644 6.5201 11.09996
-0.00341 0.57812 0.001 177.95934 0 3.77979 6.14493 -1.23806 -0.43689 -29.80486 1.63156 1.65458 22.37659 -12.1816 3.25599 10.18303 85.36895 0.01703 1.07817 24.03188 6.86818 -14.52392 7.81203 -75.67607 -6.7999 -0.05138 3.987 2.19081 15.26044 -22.01288 11.56666 -9.28572 -13.08025 2.01078 -4.91336 -6.72933 -14.88537 7.64343 6.49428 11.10445
-0.00413 0.57827 0.00111 177.98441 0 3.72159 6.41829 -1.1745 -0.36918 -30.03569 1.60772 1.68091 22.60586 -12.1705 3.43519 10.11778 85.20519 0.00828 1.15965 24.24505 6.69386 -13.88563 7.76361 -75.65314 -6.79651 -0.17912 3.77918 2.19883 15.20471 -21.70124 11.47998 -9.16898 -13.08791 1.95388 -4.87178 -6.80296 -14.9136 7.67093 6.48637 11.11826
-0.00483 0.57836 0.00122 178.00181 0 3.67325 6.69212 -1.11824 -0.28458 -30.25852 1.56176 1.69261 22.82398 -12.13246 3.59073 10.04937 85.01741 -0.00347 1.22462 24.44803 6.56147 -13.23667 7.72078 -75.63424 -6.79281 -0.28553 3.59774 2.2021 15.14256 -21.42884 11.35733 -9.01667 -13.09139 1.89683 -4.83995 -6.83492 -14.92966 7.67677 6.47167 11.12847
-0.00557 0.57849 0.00136 178.02327 0 3.61813 6.98538 -1.05426 -0.18508 -30.5154 1.51874 1.70228 23.06576 -12.09146 3.72541 9.96765 84.83713 -0.00898 1.31171 24.68392 6.40097 -12.50134 7.6706 -75.62396 -6.78621 -0.41616 3.39072 2.20651 15.08666 -21.1124 11.22559 -8.84624 -13.10536 1.83158 -4.80178 -6.87843 -14.9391 7.68123 6.45151 11.13618
-0.00622 0.57857 0.00145 178.03991 0 3.57284 7.23536 -1.00357 -0.12714 -30.70186 1.48125 1.72381 23.26128 -12.0712 3.91728 9.91677 84.65373 -0.02643 1.3592 24.85303 6.28035 -11.96233 7.63361 -75.59312 -6.78601 -0.50472 3.22624 2.21093 15.02071 -20.87238 11.13271 -8.73425 -13.09884 1.78436 -4.77242 -6.91847 -14.96914 7.69989 6.44671 11.15108
-0.0066 0.57853 0.00146 178.0383 0 3.55901 7.36994 -0.99167 -0.1743 -30.68846 1.44293 1.7725 23.32424 -12.09183 4.26275 9.94953 84.44118 -0.08013 1.28597 24.83119 6.29116 -11.94716 7.63649 -75.50335 -6.80456 -0.46648 3.19141 2.21264 14.92065 -20.86148 11.12673 -8.76324 -13.03043 1.78717 -4.77264 -6.9257 -15.05234 7.74759 6.48205 11.18549
-0.00688 0.57844 0.00142 178.03156 0 3.55575 7.461 -0.99369 -0.26146 -30.60492 1.40929 1.83151 23.34012 -12.13138 4.66123 10.01253 84.22539 -0.14547 1.17304 24.74263 6.34444 -12.12771 7.65286 -75.39432 -6.82923 -0.3851 3.20075 2.21409 14.81086 -20.92927 11.15701 -8.84779 -12.94213 1.80776 -4.7822 -6.92694 -15.15465 7.80764 6.53186 11.22649
-0.0072 0.57837 0.00141 178.02806 0 3.54774 7.57117 -0.98989 -0.32945 -30.55754 1.37671 1.88408 23.37931 -12.16345 5.02843 10.06043 84.01673 -0.20393 1.08187 24.68859 6.3766 -12.21929 7.66196 -75.29778 -6.84993 -0.32502 3.189 2.21581 14.70791 -20.95918 11.1705 -8.90616 -12.8658 1.81923 -4.78692 -6.93237 -15.24563 7.86088 6.57359 11.26313
-0.00753 0.57829 0.0014 178.02129 0 3.53885 7.68411 -0.98355 -0.40329 -30.4934 1.33284 1.94512 23.41264 -12.1935 5.4293 10.11442 83.7859 -0.26919 0.97599 24.61845 6.41329 -12.31233 7.67488 -75.18525 -6.87545 -0.25918 3.17978 2.21712 14.59486 -20.99545 11.18794 -8.97152 -12.77707 1.835 -4.79348 -6.93442 -15.34837 7.92068 6.62212 11.30563
-0.00782 0.57822 0.00136 178.01984 0 3.53456 7.78067 -0.98593 -0.47375 -30.44583 1.3123 1.99061 23.44461 -12.23073 5.77044 10.16286 83.5998 -0.32285 0.89084 24.56411 6.45219 -12.44921 7.68401 -75.10131 -6.89271 -0.19442 3.1766 2.21925 14.50071 -21.03848 11.20505 -9.03436 -12.70957 1.8463 -4.79871 -6.94117 -15.43137 7.96935 6.65989 11.33763
-0.008 0.57821 0.00128 178.03495 0 3.54026 7.84661 -1.00953 -0.52587 -30.47713 1.36072 1.98994 23.50473 -12.28923 5.94517 10.1874 83.53837 -0.34366 0.87397 24.58658 6.48228 -12.64709 7.67178 -75.10377 -6.88264 -0.14519 3.17747 2.22251 14.45863 -21.0773 11.2089 -9.07669 -12.70422 1.83803 -4.79778 -6.96022 -15.44965 7.98194 6.66249 11.33672
-0.00815 0.57821 0.00117 178.05538 0 3.55038 7.89716 -1.04148 -0.5728 -30.52559 1.43117 1.97335 23.56217 -12.35297 6.05564 10.20539 83.52175 -0.352 0.87913 24.62496 6.51425 -12.88371 7.65656 -75.13525 -6.86453 -0.09821 3.18343 2.22682 14.43635 -21.12135 11.21143 -9.11423 -12.72117 1.82505 -4.79532 -6.9841 -15.44822 7.98311 6.65401 11.32536
-0.00831 0.5782 0.00106 178.07296 0 3.55861 7.95188 -1.06922 -0.62141 -30.55437 1.48752 1.96422 23.6062 -12.4099 6.18744 10.22712 83.48412 -0.36481 0.87303 24.64384 6.54885 -13.11089 7.64791 -75.15165 -6.85221 -0.04847 3.1885 2.23138 14.40658 -21.16553 11.2164 -9.15337 -12.72881 1.8162 -4.79381 -7.0068 -15.45935 7.99077 6.65175 11.32029
-0.00847 0.57819 0.00098 178.09234 0 3.56654 8.01586 -1.09887 -0.67443 -30.62653 1.56121 1.95409 23.70649 -12.48581 6.35369 10.24692 83.44913 -0.38328 0.87019 24.70856 6.5706 -13.31268 7.61835 -75.1752 -6.83146 -0.00375 3.18916 2.23279 14.37003 -21.20125 11.21482 -9.19653 -12.73232 1.80001 -4.79159 -7.02531 -15.4562 7.99333 6.64504 11.3091
-0.00862 0.57818 0.00085 178.10913 0 3.5762 8.05887 -1.12673 -0.71636 -30.6188 1.60408 1.94266 23.69441 -12.52368 6.43306 10.2685 83.41931 -0.38662 0.86707 24.68703 6.61846 -13.57124 7.63067 -75.19119 -6.8258 0.04928 3.19956 2.24109 14.35251 -21.25553 11.22624 -9.22995 -12.74994 1.7972 -4.79032 -7.05344 -15.47755 8.00373 6.64471 11.30792
-0.00869 0.57814 0.00065 178.11893 0 3.58796 8.03618 -1.14405 -0.73017 -30.34084 1.55496 1.92644 23.33292 -12.45059 6.28119 10.29911 83.39285 -0.35288 0.85145 24.38555 6.74319 -13.99919 7.76603 -75.17779 -6.86761 0.13453 3.23562 2.26766 14.38152 -21.35272 11.27224 -9.23289 -12.80136 1.83718 -4.79235 -7.11 -15.57389 8.03756 6.66522 11.33833
-0.00874 0.57809 0.00041 178.12581 0 3.60153 7.9954 -1.15981 -0.73266 -29.99154 1.47411 1.91015 22.86718 -12.3396 6.04551 10.33115 83.37005 -0.3038 0.83617 24.00497 6.8932 -14.47748 7.94227 -75.15612 -6.92391 0.22625 3.28082 2.30124 14.42896 -21.46886 11.33146 -9.22674 -12.86616 1.88979 -4.79523 -7.17566 -15.69496 8.0798 6.6924 11.37887
-0.00882 0.57804 0.00018 178.13293 0 3.61531 7.97057 -1.17859 -0.73921 -29.70403 1.40904 1.89744 22.47414 -12.24914 5.85207 10.36074 83.34552 -0.26088 0.82507 23.68476 7.02767 -14.91768 8.0954 -75.13928 -6.97134 0.30924 3.32192 2.33197 14.46911 -21.58115 11.38556 -9.22763 -12.92481 1.9335 -4.79757 -7.23506 -15.80299 8.11878 6.71609 11.41383
-0.00881 0.578 -1e-05 178.14432 0 3.62505 7.9121 -1.18814 -0.74983 -29.28979 1.3399 1.87006 21.96966 -12.14571 5.63735 10.39763 83.32277 -0.22176 0.79639 23.25853 7.1783 -15.42497 8.26777 -75.11899 -7.02909 0.41715 3.36403 2.3613 14.50651 -21.67551 11.43603 -9.2163 -12.98481 1.99056 -4.80077 -7.30311 -15.91807 8.15494 6.74118 11.45258
-0.00899 0.57794 -0.00029 178.14667 0 3.64337 7.92014 -1.21614 -0.7498 -29.12649 1.27026 1.87235 21.67809 -12.05922 5.44979 10.41984 83.29667 -0.17024 0.80418 23.03841 7.30257 -15.80217 8.40957 -75.10345 -7.06772 0.47404 3.40483 2.39519 14.55232 -21.80921 11.49705 -9.2281 -13.04454 2.0227 -4.80207 -7.35583 -16.02444 8.19917 6.76526 11.48593
